<svg id="Layer_1" data-name="Layer 1" xmlns="http://www.w3.org/2000/svg" viewBox="0 0 16 13"><defs><style>.cls-1{fill:#252729;}</style></defs><path class="cls-1" d="M16.375,7.156A9.27,9.27,0,0,1,15.281,11.5a8.925,8.925,0,0,1-3.156,3.531A9.017,9.017,0,0,1,7.031,16.5,9.106,9.106,0,0,1,2,15.031c.229.021.49.031.781.031a6.51,6.51,0,0,0,4.094-1.406,3.048,3.048,0,0,1-1.922-.641,3.271,3.271,0,0,1-1.141-1.609,5.917,5.917,0,0,0,.594.031,4.133,4.133,0,0,0,.875-.094,3.308,3.308,0,0,1-1.875-1.156,3.147,3.147,0,0,1-.75-2.063V8.063A3.1,3.1,0,0,0,4.125,8.5,3.63,3.63,0,0,1,3.063,7.313a3.182,3.182,0,0,1,.062-3.22A9.062,9.062,0,0,0,6.109,6.531a9.062,9.062,0,0,0,3.766,1,4.519,4.519,0,0,1-.063-.75A3.254,3.254,0,0,1,10.25,5.14a3.206,3.206,0,0,1,1.188-1.2A3.174,3.174,0,0,1,13.063,3.5a3.137,3.137,0,0,1,1.328.281,3.707,3.707,0,0,1,1.078.75,6.683,6.683,0,0,0,2.094-.781,3.257,3.257,0,0,1-1.438,1.813A7.029,7.029,0,0,0,18,5.032a7.194,7.194,0,0,1-1.656,1.719A1.837,1.837,0,0,1,16.375,7.156Z" transform="translate(-2 -3.5)"/></svg>