<svg id="Layer_1" data-name="Layer 1" xmlns="http://www.w3.org/2000/svg" viewBox="0 0 14 14"><defs><style>.cls-1{fill:#252729;}</style></defs><path class="cls-1" d="M16.969,7.094Q17,7.968,17,10t-.047,2.922a5.878,5.878,0,0,1-.266,1.547,3.655,3.655,0,0,1-2.218,2.218,5.92,5.92,0,0,1-1.547.266Q12.031,17,10,17t-2.922-.047a5.087,5.087,0,0,1-1.547-.3,3.334,3.334,0,0,1-1.359-.828,3.634,3.634,0,0,1-.859-1.359,5.92,5.92,0,0,1-.266-1.547Q3,12.031,3,10t.047-2.922a5.878,5.878,0,0,1,.266-1.547A3.655,3.655,0,0,1,5.531,3.313a5.92,5.92,0,0,1,1.547-.266Q7.969,3,10,3t2.922.047a5.878,5.878,0,0,1,1.547.266,3.66,3.66,0,0,1,2.219,2.218A6.424,6.424,0,0,1,16.969,7.094Zm-1.5,7.031a6.6,6.6,0,0,0,.25-1.688q.032-.687.031-1.938v-1q0-1.281-.031-1.938a6.291,6.291,0,0,0-.25-1.688,2.255,2.255,0,0,0-1.344-1.344,6.284,6.284,0,0,0-1.688-.25Q11.75,4.251,10.5,4.25h-1q-1.25,0-1.938.031a6.6,6.6,0,0,0-1.688.25A2.255,2.255,0,0,0,4.53,5.875a6.284,6.284,0,0,0-.25,1.688Q4.25,8.25,4.25,9.5v1q0,1.25.031,1.938a6.6,6.6,0,0,0,.25,1.688A2.37,2.37,0,0,0,5.875,15.47a6.6,6.6,0,0,0,1.688.25q.687.03,1.937.03h1q1.281,0,1.938-.031a6.291,6.291,0,0,0,1.688-.25A2.371,2.371,0,0,0,15.469,14.125ZM10,6.406a3.505,3.505,0,0,1,1.8.484A3.594,3.594,0,0,1,13.11,8.2a3.578,3.578,0,0,1,0,3.594A3.594,3.594,0,0,1,11.8,13.11a3.578,3.578,0,0,1-3.594,0A3.594,3.594,0,0,1,6.89,11.8a3.578,3.578,0,0,1,0-3.594A3.594,3.594,0,0,1,8.2,6.89,3.5,3.5,0,0,1,10,6.406Zm0,5.938A2.349,2.349,0,0,0,12.344,10,2.349,2.349,0,0,0,10,7.656,2.349,2.349,0,0,0,7.656,10,2.349,2.349,0,0,0,10,12.344ZM14.594,6.25a.84.84,0,1,0-.844.844.759.759,0,0,0,.578-.25A.978.978,0,0,0,14.594,6.25Z" transform="translate(-3 -3)"/></svg>