<svg id="Layer_1" data-name="Layer 1" xmlns="http://www.w3.org/2000/svg" viewBox="0 0 16 12"><defs><style>.cls-1{fill:#fff;}</style></defs><path class="cls-1" d="M10,12a2,2,0,0,1-1-.375,7.5,7.5,0,0,1-.969-.687l-.312-.219Q3.874,7.906,2.5,6.844l-.219-.156A.714.714,0,0,1,2,6.094V5.5A1.5,1.5,0,0,1,3.5,4h13A1.494,1.494,0,0,1,18,5.5v.594a.714.714,0,0,1-.281.594l-.156.125q-1.344,1.062-5.282,3.906l-.312.219a7.5,7.5,0,0,1-.969.687A2,2,0,0,1,10,12Zm7.688-4.031q-1.125.874-4.813,3.531l-.312.25a8.789,8.789,0,0,1-1.188.813A2.779,2.779,0,0,1,10,13a2.924,2.924,0,0,1-1.375-.406,12.482,12.482,0,0,1-1.187-.813L7.125,11.5Q3.344,8.75,2.313,7.969a.2.2,0,0,0-.2-.016A.172.172,0,0,0,2,8.125V14.5A1.494,1.494,0,0,0,3.5,16h13A1.492,1.492,0,0,0,18,14.5V8.125a.2.2,0,0,0-.109-.187A.153.153,0,0,0,17.688,7.969Z" transform="translate(-2 -4)"/></svg>