<svg id="Layer_1" data-name="Layer 1" xmlns="http://www.w3.org/2000/svg" viewBox="0 0 12 15.625"><defs><style>.cls-1{fill:#252729;}</style></defs><path class="cls-1" d="M10.375,2.188a6.487,6.487,0,0,1,2.766.672,5.133,5.133,0,0,1,2.047,1.766A4.82,4.82,0,0,1,16,7.359a8.14,8.14,0,0,1-.5,2.859,5.409,5.409,0,0,1-1.594,2.313,4.187,4.187,0,0,1-2.719.938,2.89,2.89,0,0,1-1.25-.3,1.906,1.906,0,0,1-.906-.828l-.25,1a20.425,20.425,0,0,1-.656,2.25A12.369,12.369,0,0,1,6.781,17.75l-.125.063-.094-.094-.031-.469q-.094-.874-.094-1.313A12.467,12.467,0,0,1,6.75,13.5q.188-.874.625-2.594L7.75,9.4a3.354,3.354,0,0,1-.312-1.561,2.344,2.344,0,0,1,.469-1.5,1.718,1.718,0,0,1,1-.625,1.193,1.193,0,0,1,1.031.219,1.308,1.308,0,0,1,.438,1.094,3.781,3.781,0,0,1-.125.906,7.676,7.676,0,0,1-.281.875,7.529,7.529,0,0,0-.282.875,3.688,3.688,0,0,0-.125.875,1.284,1.284,0,0,0,.422.984A1.444,1.444,0,0,0,11,11.938a2.078,2.078,0,0,0,1.688-.875,4.631,4.631,0,0,0,.875-1.938,8.083,8.083,0,0,0,.25-1.969A3.214,3.214,0,0,0,12.8,4.625a3.866,3.866,0,0,0-2.672-.906,4.532,4.532,0,0,0-2.234.563A4.059,4.059,0,0,0,6.313,5.813,4.336,4.336,0,0,0,5.75,8.031a2.912,2.912,0,0,0,.188,1.031,3.477,3.477,0,0,0,.343.688,1.17,1.17,0,0,1,.188.406,2.065,2.065,0,0,1-.125.625q-.156.469-.344.469a1.362,1.362,0,0,1-.875-.422,3.251,3.251,0,0,1-.781-1.141A4.925,4.925,0,0,1,4,7.813a5.032,5.032,0,0,1,.938-3A6.005,6.005,0,0,1,7.281,2.891,7.089,7.089,0,0,1,10.375,2.188Z" transform="translate(-4 -2.188)"/></svg>