<svg id="Layer_1" data-name="Layer 1" xmlns="http://www.w3.org/2000/svg" viewBox="0 0 18.064 13"><defs><style>.cls-1{fill:#252729;}</style></defs><path class="cls-1" d="M10.005,16.5l-2.854-.031a22.1,22.1,0,0,1-3.938-.33A2.717,2.717,0,0,1,1.333,14.3,14.5,14.5,0,0,1,1,11.589l-.032-1.58c0-.474.01-1,.032-1.59a14.4,14.4,0,0,1,.328-2.67A2.686,2.686,0,0,1,3.21,3.862a22.2,22.2,0,0,1,3.931-.331L9.995,3.5l2.854.031a22.1,22.1,0,0,1,3.938.33,2.687,2.687,0,0,1,1.883,1.88l0,.008A14.385,14.385,0,0,1,19,8.41l.032,1.58L19,11.572a14.535,14.535,0,0,1-.329,2.709,2.718,2.718,0,0,1-1.881,1.857,22.2,22.2,0,0,1-3.931.331Zm-.01-12-2.833.031a20.559,20.559,0,0,0-3.688.3,1.681,1.681,0,0,0-1.18,1.182A13.871,13.871,0,0,0,2,8.465c-.02.567-.03,1.082-.03,1.535L2,11.553a13.938,13.938,0,0,0,.3,2.478,1.719,1.719,0,0,0,1.181,1.143,20.634,20.634,0,0,0,3.694.294L10,15.5l2.833-.031a20.759,20.759,0,0,0,3.688-.295,1.65,1.65,0,0,0,.746-.433,1.683,1.683,0,0,0,.437-.725A14.007,14.007,0,0,0,18,11.536l.031-1.545L18,8.447a13.764,13.764,0,0,0-.3-2.442,1.682,1.682,0,0,0-1.182-1.179,20.634,20.634,0,0,0-3.694-.294Z" transform="translate(-0.968 -3.5)"/><polygon class="cls-1" points="7.282 9.063 11.751 6.5 7.282 3.969 7.282 9.063"/></svg>