<svg id="Layer_1" data-name="Layer 1" xmlns="http://www.w3.org/2000/svg" viewBox="0 0 15.5 15.5"><defs><style>.cls-1{fill:#fff;}</style></defs><path class="cls-1" d="M16.7,13.875A7.824,7.824,0,0,1,13.875,16.7a7.709,7.709,0,0,1-6.156.7,7.826,7.826,0,0,0,.938-2.031l.5-1.843a1.455,1.455,0,0,0,.688.625,2.406,2.406,0,0,0,1.094.25,3.5,3.5,0,0,0,2.047-.641,4.3,4.3,0,0,0,1.438-1.734,5.531,5.531,0,0,0,.516-2.391,4.408,4.408,0,0,0-.627-2.328A4.329,4.329,0,0,0,12.594,5.7a5.143,5.143,0,0,0-2.438-.578,5.848,5.848,0,0,0-2.813.656,4.455,4.455,0,0,0-1.7,1.7,4.655,4.655,0,0,0-.61,2.328,3.93,3.93,0,0,0,.453,1.8,2.472,2.472,0,0,0,1.141,1.2c.146.063.229.031.25-.094l.219-.875a.217.217,0,0,0-.063-.219,2.473,2.473,0,0,1-.406-.8,3.192,3.192,0,0,1-.156-.984A3.353,3.353,0,0,1,6.891,8.2a3.244,3.244,0,0,1,1.2-1.234,3.509,3.509,0,0,1,1.875-.5,3.2,3.2,0,0,1,2.344.891,3.039,3.039,0,0,1,.906,2.266,4.354,4.354,0,0,1-.7,2.563,2.069,2.069,0,0,1-1.734,1,1.147,1.147,0,0,1-.938-.422,1.1,1.1,0,0,1-.219-.984,7.987,7.987,0,0,1,.281-1,6.813,6.813,0,0,0,.344-1.609A1.128,1.128,0,0,0,10,8.422a.887.887,0,0,0-.719-.3,1.219,1.219,0,0,0-1,.531A2.149,2.149,0,0,0,7.875,10a2.722,2.722,0,0,0,.219,1.156L7.219,15a6.879,6.879,0,0,0-.031,2.219A7.494,7.494,0,0,1,3.61,14.406,7.57,7.57,0,0,1,2.25,10,7.51,7.51,0,0,1,3.3,6.125,7.839,7.839,0,0,1,6.125,3.3a7.694,7.694,0,0,1,7.75,0A7.839,7.839,0,0,1,16.7,6.125a7.694,7.694,0,0,1,0,7.75Z" transform="translate(-2.25 -2.25)"/></svg>