<svg id="Layer_1" data-name="Layer 1" xmlns="http://www.w3.org/2000/svg" viewBox="0 0 16 16"><defs><style>.cls-1{fill:#252729;}</style></defs><path class="cls-1" d="M17.531,17.875a.344.344,0,0,1-.531,0l-4.031-4.031a.339.339,0,0,1-.094-.25v-.281a6.637,6.637,0,0,1-2.015,1.25A6.366,6.366,0,0,1,8.5,15a6.344,6.344,0,0,1-3.235-.859A6.5,6.5,0,0,1,2,8.563a6.179,6.179,0,0,1,.859-3.3A6.67,6.67,0,0,1,5.266,2.86,6.179,6.179,0,0,1,8.563,2a6.5,6.5,0,0,1,5.578,3.265,6.548,6.548,0,0,1,.422,5.594,6.681,6.681,0,0,1-1.25,2.015h.281a.235.235,0,0,1,.25.094L17.875,17a.344.344,0,0,1,0,.531ZM13.266,5.735A5.472,5.472,0,0,0,8.5,3,5.472,5.472,0,0,0,3,8.5,5.472,5.472,0,0,0,8.5,14,5.472,5.472,0,0,0,14,8.5,5.411,5.411,0,0,0,13.266,5.735Z" transform="translate(-2 -2)"/></svg>