<svg id="Layer_1" data-name="Layer 1" xmlns="http://www.w3.org/2000/svg" viewBox="0 0 14 17.999"><defs><style>.cls-1{fill:#252729;}</style></defs><path class="cls-1" d="M16.994,17.827,15.786,6.622a1.056,1.056,0,0,0-1.049-.945H13.072L12.8,3.351v-.01a3.217,3.217,0,0,0-.485-1.209A2.534,2.534,0,0,0,9.975,1,2.469,2.469,0,0,0,7.656,2.137,3.142,3.142,0,0,0,7.2,3.35l-.27,2.326H5.09a1.056,1.056,0,0,0-1.05.962L3.005,17.843A1.057,1.057,0,0,0,4.055,19h11.89A1.058,1.058,0,0,0,16.994,17.827ZM7.913,3.435A1.915,1.915,0,0,1,9.968,1.726H9.98A1.991,1.991,0,0,1,12.087,3.44l.26,2.236H7.652Z" transform="translate(-3 -1.001)"/></svg>