<svg id="Layer_1" data-name="Layer 1" xmlns="http://www.w3.org/2000/svg" viewBox="0 0 14.001 13"><defs><style>.cls-1{fill:#d61a59;}</style></defs><path class="cls-1" d="M10,16.5c1.053-1.015,2.147-1.982,3.246-2.945.659-.578,1.321-1.154,1.929-1.789a7.012,7.012,0,0,0,1.213-1.632,5.406,5.406,0,0,0,.529-1.7A7.853,7.853,0,0,0,17,7.015a3.548,3.548,0,0,0-2.377-3.29,3.643,3.643,0,0,0-3.946.952,4.36,4.36,0,0,0-.667.855h-.01a4.331,4.331,0,0,0-.667-.855,3.64,3.64,0,0,0-3.946-.952,3.548,3.548,0,0,0-2.377,3.29,7.858,7.858,0,0,0,.078,1.421,5.388,5.388,0,0,0,.529,1.7,6.992,6.992,0,0,0,1.213,1.632c.609.634,1.27,1.211,1.929,1.789C7.853,14.518,8.947,15.485,10,16.5Z" transform="translate(-3 -3.5)"/></svg>