<svg xmlns="http://www.w3.org/2000/svg" viewBox="0 0 284.53 40.55"><defs><style>.cls-1{fill:#231f20;stroke:#231f20;stroke-linecap:round;stroke-linejoin:round;stroke-width:0.84px;}.cls-2{fill:#ffb700;}</style></defs><title>Asset 2</title><g id="Layer_2" data-name="Layer 2"><g id="Layer_1-2" data-name="Layer 1"><path class="cls-1" d="M71.21,38,55.77,2.58H56.9l9.23,21.07c3.36,7.7,4.89,11.1,5.53,12.83h0c.69-1.58,2.66-5.82,5.72-12.34L87.5,2.58h1.13L72.05,38Z"/><path class="cls-1" d="M133.54,19.51h-22V37h24l-.25.94H110.5V2.58h24.08v.94h-23V18.57h22Z"/><path class="cls-1" d="M156,38V2.58h1.23c7.11,8.83,24.57,30.5,27.24,33.9h0c-.2-2.32-.15-10.56-.15-16.24V2.58h1V38h-1.09c-6.91-8.64-25.91-32.17-27.39-34.25h0c.2,4.64.15,10.36.15,16.48V38Z"/><path class="cls-1" d="M207.91,2.58V23.11c0,11.79,7.16,14.61,13.13,14.61,7.8,0,13.27-3.7,13.27-14.71V2.58h1V22.82c0,11.6-5.72,15.84-14.31,15.84-8.78,0-14.16-5.08-14.16-15.3V2.58Z"/><path class="cls-1" d="M258.05,28.34c1,5.38,5.13,9.38,13,9.38,8.14,0,11.94-3.8,11.94-8.59s-2.17-7.4-12.34-9.43c-8.24-1.63-11.89-3.45-11.89-9S264,1.89,270.44,1.89c10,0,12.24,5.77,12.83,9h-1c-.94-3.75-3.45-8.09-11.79-8.09-5.33,0-10.61,2.32-10.61,7.8,0,4.29,2.12,6.42,11.15,8.14,11,2.12,13.13,5.38,13.13,10.21,0,6.71-6,9.67-13,9.67-7.85,0-12.88-3.4-14.11-10.31Z"/><path class="cls-2" d="M20.28.84A19.44,19.44,0,1,0,39.71,20.28,19.46,19.46,0,0,0,20.28.84Zm0,5.88a3.85,3.85,0,1,1-3.85,3.85A3.86,3.86,0,0,1,20.28,6.72Zm12.17,7h0l-.24.39L21.46,32.35l-.07.1-1,1.79L17.2,28.81,8.12,13.74h0l-.23-.38-2-3.3,2.78,0,1.68,2.82,10,16.6L31,11.51,31.86,10l2.78,0Z"/><path class="cls-2" d="M20.28,7.13a3.44,3.44,0,1,0,3.44,3.44A3.44,3.44,0,0,0,20.28,7.13Zm0,6.45a3,3,0,1,1,3-3A3,3,0,0,1,20.28,13.59Z"/><path class="cls-2" d="M20.28,0A20.28,20.28,0,1,0,40.55,20.28,20.3,20.3,0,0,0,20.28,0Zm0,40.13A19.86,19.86,0,1,1,40.13,20.28,19.85,19.85,0,0,1,20.28,40.13Z"/><path class="cls-2" d="M31.86,10,31,11.51l-10.58,18-10-16.6L8.69,10.08l-2.78,0,2,3.3.23.38h0L17.2,28.81l3.15,5.44,1-1.79.07-.1L32.21,14.07l.24-.39h0L34.64,10Zm.43,3.1h0l-.43.73L21.1,32.14l-.05.07-.69,1.2-2.78-4.82L8.26,13.15h0L6.66,10.49h1.8L10,13.12,20.39,30.32,31.33,11.73l.77-1.28h1.8Z"/><path class="cls-2" d="M20.28.42A19.86,19.86,0,1,0,40.13,20.28,19.86,19.86,0,0,0,20.28.42Zm0,39.29A19.44,19.44,0,1,1,39.71,20.28,19.46,19.46,0,0,1,20.28,39.71Z"/><path class="cls-2" d="M20.28,6.72a3.85,3.85,0,1,0,3.86,3.85A3.86,3.86,0,0,0,20.28,6.72Zm0,7.29a3.44,3.44,0,1,1,3.44-3.43A3.44,3.44,0,0,1,20.28,14Z"/></g></g></svg>