<svg id="Layer_1" data-name="Layer 1" xmlns="http://www.w3.org/2000/svg" viewBox="0 0 15.999 16"><defs><style>.cls-1{fill:#252729;}</style></defs><path class="cls-1" d="M17.531,17.875a.344.344,0,0,1-.531,0l-4.031-4.031a.339.339,0,0,1-.094-.25v-.281a6.662,6.662,0,0,1-2.015,1.25A6.366,6.366,0,0,1,8.5,15a6.343,6.343,0,0,1-3.234-.859A6.5,6.5,0,0,1,2,8.563a6.17,6.17,0,0,1,.858-3.3A6.655,6.655,0,0,1,5.266,2.86,6.166,6.166,0,0,1,8.563,2a6.5,6.5,0,0,1,5.578,3.265,6.548,6.548,0,0,1,.422,5.594,6.662,6.662,0,0,1-1.25,2.015h.281a.234.234,0,0,1,.25.094L17.875,17a.346.346,0,0,1,0,.532ZM13.266,5.735A5.472,5.472,0,0,0,8.5,3,5.472,5.472,0,0,0,3,8.5,5.472,5.472,0,0,0,8.5,14,5.472,5.472,0,0,0,14,8.5,5.411,5.411,0,0,0,13.266,5.735ZM12,8.626a.366.366,0,0,1-.109.266A.361.361,0,0,1,11.625,9H9v2.625a.366.366,0,0,1-.109.266A.361.361,0,0,1,8.626,12h-.25A.372.372,0,0,1,8,11.625V9H5.376a.362.362,0,0,1-.266-.109A.368.368,0,0,1,5,8.626v-.25A.366.366,0,0,1,5.11,8.11.362.362,0,0,1,5.376,8H8V5.376A.366.366,0,0,1,8.11,5.11.362.362,0,0,1,8.376,5h.25A.372.372,0,0,1,9,5.376V8h2.625A.371.371,0,0,1,12,8.376Z" transform="translate(-2.001 -2)"/></svg>