<svg id="Layer_1" data-name="Layer 1" xmlns="http://www.w3.org/2000/svg" viewBox="0 0 14.001 13"><defs><style>.cls-1{fill:#252729;}</style></defs><path class="cls-1" d="M6.68,4.5a2.743,2.743,0,0,1,1.95.892,3.39,3.39,0,0,1,.513.661l.3.478h1.12l.293-.478a3.36,3.36,0,0,1,.513-.661,2.743,2.743,0,0,1,1.95-.892,3.086,3.086,0,0,1,.98.173A2.559,2.559,0,0,1,16,7.055a6.769,6.769,0,0,1-.068,1.238A4.368,4.368,0,0,1,15.5,9.678a5.96,5.96,0,0,1-1.045,1.4c-.56.583-1.165,1.113-1.8,1.675l-.062.054c-.877.769-1.738,1.528-2.587,2.32-.848-.791-1.71-1.551-2.587-2.32l-.062-.054c-.641-.561-1.246-1.092-1.8-1.675A5.96,5.96,0,0,1,4.5,9.678a4.333,4.333,0,0,1-.43-1.386,6.769,6.769,0,0,1-.068-1.238A2.558,2.558,0,0,1,5.7,4.673,3.086,3.086,0,0,1,6.68,4.5m6.64-1a3.729,3.729,0,0,0-2.648,1.177,4.36,4.36,0,0,0-.667.855h-.01a4.331,4.331,0,0,0-.667-.855A3.729,3.729,0,0,0,6.68,3.5a4.064,4.064,0,0,0-1.3.225,3.548,3.548,0,0,0-2.377,3.29,7.858,7.858,0,0,0,.078,1.421,5.388,5.388,0,0,0,.529,1.7,6.964,6.964,0,0,0,1.213,1.632c.609.634,1.27,1.211,1.929,1.789,1.1.963,2.193,1.93,3.246,2.945,1.053-1.015,2.147-1.982,3.246-2.945.659-.578,1.321-1.154,1.929-1.789a7.012,7.012,0,0,0,1.213-1.632,5.406,5.406,0,0,0,.529-1.7A7.853,7.853,0,0,0,17,7.015a3.548,3.548,0,0,0-2.377-3.29,4.064,4.064,0,0,0-1.3-.225Z" transform="translate(-3 -3.5)"/></svg>