<svg id="Layer_1" data-name="Layer 1" xmlns="http://www.w3.org/2000/svg" viewBox="0 0 12.5 12.5"><defs><style>.cls-1{fill:#252729;}</style></defs><path class="cls-1" d="M11.328,10l4.844,4.844a.334.334,0,0,1,0,.429l-.9.9a.334.334,0,0,1-.429,0L10,11.328,5.156,16.172a.334.334,0,0,1-.429,0l-.9-.9a.334.334,0,0,1,0-.429L8.672,10,3.828,5.156a.334.334,0,0,1,0-.429l.9-.9a.334.334,0,0,1,.429,0L10,8.672l4.844-4.844a.334.334,0,0,1,.429,0l.9.9a.334.334,0,0,1,0,.429l-.82.821Z" transform="translate(-3.75 -3.75)"/></svg>